<?xml version="1.0" encoding="iso-8859-1"?>
<!-- Generator: Adobe Illustrator 21.0.0, SVG Export Plug-In . SVG Version: 6.00 Build 0)  -->
<svg xmlns="http://www.w3.org/2000/svg" xmlns:xlink="http://www.w3.org/1999/xlink" version="1.1" id="Capa_1" x="0px" y="0px" viewBox="0 0 512.004 512.004" style="enable-background:new 0 0 512.004 512.004;" xml:space="preserve" width="512" height="512">
<g>
	<g>
		<g>
			<path style="fill:#333333;" d="M212.418,87.616c-4.142,0-7.5-3.358-7.5-7.5V42.209c0-4.939-4.018-8.958-8.957-8.958     s-8.958,4.019-8.958,8.958v5.042c0,4.142-3.358,7.5-7.5,7.5s-7.5-3.358-7.5-7.5v-5.042c0-13.21,10.747-23.958,23.958-23.958     c13.21,0,23.957,10.747,23.957,23.958v37.908C219.918,84.258,216.56,87.616,212.418,87.616z"/>
			<path style="fill:#333333;" d="M299.587,87.616c-4.142,0-7.5-3.358-7.5-7.5V42.209c0-13.21,10.747-23.958,23.957-23.958     c13.21,0,23.958,10.747,23.958,23.958v5.042c0,4.142-3.358,7.5-7.5,7.5s-7.5-3.358-7.5-7.5v-5.042     c0-4.939-4.019-8.958-8.958-8.958s-8.957,4.019-8.957,8.958v37.908C307.087,84.258,303.729,87.616,299.587,87.616z"/>
		</g>
		<g>
			<path style="fill:#333333;" d="M84.173,243.165c-0.403,0-0.811-0.032-1.221-0.1L50.177,237.7     c-13.718-2.246-23.675-13.964-23.675-27.865v-56.022c0-4.142,3.358-7.5,7.5-7.5s7.5,3.358,7.5,7.5v56.022     c0,6.516,4.667,12.01,11.098,13.063l32.775,5.365c4.088,0.669,6.859,4.525,6.19,8.613     C90.964,240.552,87.782,243.165,84.173,243.165z"/>
			<path style="fill:#333333;" d="M7.502,390.447c-0.843,0-1.7-0.143-2.539-0.445c-3.897-1.403-5.92-5.699-4.518-9.597     l22.429-62.329c3.419-9.501,11.721-16.493,21.665-18.247l34.714-6.122c4.084-0.719,7.969,2.004,8.689,6.083     c0.719,4.08-2.004,7.969-6.083,8.689l-34.714,6.122c-4.662,0.822-8.553,4.1-10.156,8.553l-22.429,62.329     C13.459,388.543,10.575,390.447,7.502,390.447z"/>
			<path style="fill:#333333;" d="M92.999,493.753c-3.254,0-6.251-2.134-7.201-5.417l-18.519-63.994     c-2.924-10.104-0.031-20.91,7.55-28.2l24.527-23.591c2.985-2.872,7.733-2.779,10.604,0.206c2.872,2.985,2.779,7.733-0.206,10.604     l-24.528,23.592c-3.554,3.418-4.91,8.483-3.539,13.219l18.519,63.994c1.151,3.979-1.141,8.138-5.12,9.29     C94.391,493.657,93.689,493.753,92.999,493.753z"/>
		</g>
		<g>
			<path style="fill:#333333;" d="M427.831,243.052c-3.609,0-6.79-2.612-7.392-6.29c-0.669-4.088,2.102-7.944,6.19-8.613     l32.775-5.365c6.431-1.053,11.098-6.546,11.098-13.063V153.7c0-4.142,3.358-7.5,7.5-7.5s7.5,3.358,7.5,7.5v56.022     c0,13.901-9.957,25.621-23.675,27.865l-32.775,5.365C428.641,243.02,428.234,243.052,427.831,243.052z"/>
			<path style="fill:#333333;" d="M504.503,390.334c-3.074,0-5.957-1.904-7.058-4.962l-22.429-62.329     c-1.603-4.454-5.494-7.731-10.156-8.553l-34.714-6.123c-4.079-0.72-6.803-4.61-6.083-8.689c0.72-4.08,4.607-6.8,8.689-6.083     l34.714,6.123c9.944,1.754,18.246,8.746,21.665,18.247l22.429,62.329c1.402,3.897-0.62,8.194-4.518,9.597     C506.203,390.191,505.345,390.334,504.503,390.334z"/>
			<path style="fill:#333333;" d="M419.006,493.64c-0.69,0-1.392-0.096-2.088-0.297c-3.979-1.152-6.271-5.311-5.12-9.29     l18.519-63.994c1.371-4.736,0.015-9.801-3.539-13.219l-24.528-23.591c-2.985-2.871-3.078-7.619-0.206-10.604     c2.871-2.984,7.618-3.078,10.604-0.206l24.528,23.591c7.581,7.291,10.473,18.097,7.55,28.2l-18.519,63.994     C425.257,491.506,422.259,493.64,419.006,493.64z"/>
		</g>
	</g>
	<path style="fill:#67666E;" d="M197.921,432.639c18.441,6.02,37.926,9.256,58.081,9.256s39.64-3.236,58.081-9.256l-58.081-143.84   L197.921,432.639z"/>
	<path style="fill:#787780;" d="M256.002,72.613c-52.122,0-98.982,25.475-131.378,66.017c-16.716,20.919-1.781,51.896,24.997,51.896   h212.761c26.778,0,41.713-30.977,24.997-51.896C354.984,98.089,308.124,72.613,256.002,72.613z"/>
	<path style="fill:#67666E;" d="M387.38,138.63c-32.395-40.541-79.256-66.017-131.378-66.017c-7.38,0-14.649,0.528-21.792,1.52   c43.305,6.013,81.777,29.695,109.586,64.497c16.716,20.919,1.781,51.896-24.997,51.896h43.584   C389.16,190.526,404.096,159.55,387.38,138.63z"/>
	<g>
		<g>
			<circle style="fill:#333333;" cx="176.714" cy="116.886" r="27.284"/>
			<circle style="fill:#333333;" cx="335.29" cy="116.886" r="27.284"/>
		</g>
	</g>
	<path style="fill:#FF4E51;" d="M433.029,272.819c0-6.712-0.292-13.348-0.863-19.89c-3.08-35.31-32.655-62.402-68.099-62.402   H147.937c-35.444,0-65.019,27.092-68.099,62.402c-0.571,6.543-0.863,13.178-0.863,19.89c0,76.693,38.133,143.309,94.125,176.931   c16.878,10.135,38.821,2.783,46.193-15.472l30.823-76.335c2.138-5.294,9.634-5.294,11.771,0l30.823,76.335   c7.371,18.255,29.315,25.607,46.193,15.472C394.895,416.127,433.029,349.512,433.029,272.819z"/>
	<path style="fill:#E64649;" d="M432.166,252.928c-3.08-35.31-32.655-62.402-68.099-62.402H335.71   c35.444,0,65.019,27.092,68.099,62.402c0.571,6.543,0.863,13.178,0.863,19.89c0,76.693-38.133,143.309-94.125,176.931   c-0.76,0.456-1.532,0.864-2.311,1.25c9.37,4.614,20.87,4.633,30.667-1.25c55.992-33.622,94.125-100.238,94.125-176.931   C433.029,266.106,432.737,259.471,432.166,252.928z"/>
	<g>
		<circle style="fill:#333333;" cx="184.472" cy="291.505" r="35.041"/>
		<path style="fill:#333333;" d="M132.007,365.346c-10.737,0-20.341,4.834-26.769,12.439c11.304,20.719,25.851,38.934,42.846,53.734    c11.262-5.828,18.964-17.577,18.964-31.132C167.048,381.035,151.36,365.346,132.007,365.346z"/>
		<path style="fill:#333333;" d="M133.444,192.089c-24.208,5.236-43.804,23.309-50.947,47.049    c6.024,4.887,13.697,7.821,22.059,7.821c19.353,0,35.041-15.688,35.041-35.041C139.596,204.556,137.322,197.728,133.444,192.089z"/>
		<circle style="fill:#333333;" cx="327.439" cy="291.505" r="35.041"/>
		<path style="fill:#1A1A1A;" d="M379.903,365.346c10.737,0,20.341,4.834,26.769,12.439c-11.304,20.719-25.851,38.934-42.846,53.734    c-11.262-5.828-18.964-17.577-18.964-31.132C344.862,381.035,360.551,365.346,379.903,365.346z"/>
		<path style="fill:#1A1A1A;" d="M378.467,192.089c24.208,5.236,43.804,23.309,50.947,47.049    c-6.024,4.887-13.697,7.821-22.059,7.821c-19.353,0-35.041-15.688-35.041-35.041C372.314,204.556,374.589,197.728,378.467,192.089    z"/>
	</g>
</g>















</svg>
